# MagicaVoxel @ Ephtracy

# group
o 

# material
mtllib Progect_X-1.mtl
usemtl palette

# normals
vn -1 0 0
vn 1 0 0
vn 0 0 1
vn 0 0 -1
vn 0 -1 0
vn 0 1 0

# texcoords
vt 0.0214844 0.5
vt 0.876953 0.5

# verts
v -0.55 -0.55 0.55
v -0.55 -0.55 0.25
v -0.55 -0.55 -0.45
v -0.55 -0.55 -0.55
v -0.55 -0.45 0.35
v -0.55 -0.45 0.25
v -0.55 -0.35 0.45
v -0.55 -0.35 0.35
v -0.55 -0.25 0.55
v -0.55 -0.25 0.45
v -0.55 0.45 0.55
v -0.55 0.45 -0.45
v -0.55 0.55 0.55
v -0.55 0.55 -0.55
v 0.55 -0.55 0.55
v 0.55 -0.55 -0.55
v 0.55 -0.45 0.45
v 0.55 -0.45 -0.55
v 0.55 0.25 -0.45
v 0.55 0.25 -0.55
v 0.55 0.35 -0.35
v 0.55 0.35 -0.45
v 0.55 0.45 -0.25
v 0.55 0.45 -0.35
v 0.55 0.55 0.55
v 0.55 0.55 0.45
v 0.55 0.55 -0.25
v 0.55 0.55 -0.55
v -0.55 -0.55 0.55
v -0.55 -0.25 0.55
v -0.55 0.45 0.55
v -0.55 0.55 0.55
v -0.45 -0.35 0.55
v -0.45 -0.25 0.55
v -0.35 -0.45 0.55
v -0.35 -0.35 0.55
v -0.25 -0.55 0.55
v -0.25 -0.45 0.55
v 0.45 -0.55 0.55
v 0.45 0.45 0.55
v 0.55 -0.55 0.55
v 0.55 0.55 0.55
v -0.55 -0.55 -0.55
v -0.55 0.55 -0.55
v -0.45 -0.45 -0.55
v -0.45 0.55 -0.55
v 0.25 0.45 -0.55
v 0.25 0.55 -0.55
v 0.35 0.35 -0.55
v 0.35 0.45 -0.55
v 0.45 0.25 -0.55
v 0.45 0.35 -0.55
v 0.55 -0.55 -0.55
v 0.55 -0.45 -0.55
v 0.55 0.25 -0.55
v 0.55 0.55 -0.55
v -0.55 -0.55 0.55
v -0.25 -0.55 0.55
v 0.45 -0.55 0.55
v 0.55 -0.55 0.55
v -0.35 -0.55 0.45
v -0.25 -0.55 0.45
v -0.45 -0.55 0.35
v -0.35 -0.55 0.35
v -0.55 -0.55 0.25
v -0.45 -0.55 0.25
v -0.55 -0.55 -0.45
v 0.45 -0.55 -0.45
v -0.55 -0.55 -0.55
v 0.55 -0.55 -0.55
v -0.55 0.55 0.55
v 0.55 0.55 0.55
v -0.45 0.55 0.45
v 0.55 0.55 0.45
v 0.45 0.55 -0.25
v 0.55 0.55 -0.25
v 0.35 0.55 -0.35
v 0.45 0.55 -0.35
v 0.25 0.55 -0.45
v 0.35 0.55 -0.45
v -0.55 0.55 -0.55
v -0.45 0.55 -0.55
v 0.25 0.55 -0.55
v 0.55 0.55 -0.55

# faces
f 5/1/1 2/1/1 1/1/1
f 6/2/1 3/2/1 2/2/1
f 6/1/1 2/1/1 5/1/1
f 7/1/1 5/1/1 1/1/1
f 8/2/1 6/2/1 5/2/1
f 8/1/1 5/1/1 7/1/1
f 9/1/1 7/1/1 1/1/1
f 10/2/1 8/2/1 7/2/1
f 10/1/1 7/1/1 9/1/1
f 11/2/1 10/2/1 9/2/1
f 12/1/1 4/1/1 3/1/1
f 12/2/1 10/2/1 11/2/1
f 12/2/1 3/2/1 6/2/1
f 12/2/1 8/2/1 10/2/1
f 12/2/1 6/2/1 8/2/1
f 13/1/1 12/1/1 11/1/1
f 14/1/1 4/1/1 12/1/1
f 14/1/1 12/1/1 13/1/1
f 15/1/2 16/1/2 17/1/2
f 17/1/2 16/1/2 18/1/2
f 17/2/2 18/2/2 19/2/2
f 19/2/2 18/2/2 20/2/2
f 17/2/2 19/2/2 21/2/2
f 19/1/2 20/1/2 22/1/2
f 21/2/2 19/2/2 22/2/2
f 17/2/2 21/2/2 23/2/2
f 21/1/2 22/1/2 24/1/2
f 23/2/2 21/2/2 24/2/2
f 15/1/2 17/1/2 25/1/2
f 17/2/2 23/2/2 26/2/2
f 25/1/2 17/1/2 26/1/2
f 23/1/2 24/1/2 27/1/2
f 26/2/2 23/2/2 27/2/2
f 24/1/2 22/1/2 28/1/2
f 27/1/2 24/1/2 28/1/2
f 22/1/2 20/1/2 28/1/2
f 33/1/3 30/1/3 29/1/3
f 34/2/3 31/2/3 30/2/3
f 34/1/3 30/1/3 33/1/3
f 35/1/3 33/1/3 29/1/3
f 36/2/3 34/2/3 33/2/3
f 36/1/3 33/1/3 35/1/3
f 37/1/3 35/1/3 29/1/3
f 38/2/3 36/2/3 35/2/3
f 38/1/3 35/1/3 37/1/3
f 39/2/3 38/2/3 37/2/3
f 40/1/3 32/1/3 31/1/3
f 40/2/3 38/2/3 39/2/3
f 40/2/3 31/2/3 34/2/3
f 40/2/3 36/2/3 38/2/3
f 40/2/3 34/2/3 36/2/3
f 41/1/3 40/1/3 39/1/3
f 42/1/3 32/1/3 40/1/3
f 42/1/3 40/1/3 41/1/3
f 43/1/4 44/1/4 45/1/4
f 45/1/4 44/1/4 46/1/4
f 45/2/4 46/2/4 47/2/4
f 47/2/4 46/2/4 48/2/4
f 45/2/4 47/2/4 49/2/4
f 47/1/4 48/1/4 50/1/4
f 49/2/4 47/2/4 50/2/4
f 45/2/4 49/2/4 51/2/4
f 49/1/4 50/1/4 52/1/4
f 51/2/4 49/2/4 52/2/4
f 43/1/4 45/1/4 53/1/4
f 45/2/4 51/2/4 54/2/4
f 53/1/4 45/1/4 54/1/4
f 51/1/4 52/1/4 55/1/4
f 54/2/4 51/2/4 55/2/4
f 52/1/4 50/1/4 56/1/4
f 55/1/4 52/1/4 56/1/4
f 50/1/4 48/1/4 56/1/4
f 61/1/5 58/1/5 57/1/5
f 62/2/5 59/2/5 58/2/5
f 62/1/5 58/1/5 61/1/5
f 63/1/5 61/1/5 57/1/5
f 64/2/5 62/2/5 61/2/5
f 64/1/5 61/1/5 63/1/5
f 65/1/5 63/1/5 57/1/5
f 66/2/5 64/2/5 63/2/5
f 66/1/5 63/1/5 65/1/5
f 67/2/5 66/2/5 65/2/5
f 68/1/5 60/1/5 59/1/5
f 68/2/5 66/2/5 67/2/5
f 68/2/5 59/2/5 62/2/5
f 68/2/5 64/2/5 66/2/5
f 68/2/5 62/2/5 64/2/5
f 69/1/5 68/1/5 67/1/5
f 70/1/5 60/1/5 68/1/5
f 70/1/5 68/1/5 69/1/5
f 71/1/6 72/1/6 73/1/6
f 73/1/6 72/1/6 74/1/6
f 73/2/6 74/2/6 75/2/6
f 75/2/6 74/2/6 76/2/6
f 73/2/6 75/2/6 77/2/6
f 75/1/6 76/1/6 78/1/6
f 77/2/6 75/2/6 78/2/6
f 73/2/6 77/2/6 79/2/6
f 77/1/6 78/1/6 80/1/6
f 79/2/6 77/2/6 80/2/6
f 71/1/6 73/1/6 81/1/6
f 73/2/6 79/2/6 82/2/6
f 81/1/6 73/1/6 82/1/6
f 79/1/6 80/1/6 83/1/6
f 82/2/6 79/2/6 83/2/6
f 80/1/6 78/1/6 84/1/6
f 83/1/6 80/1/6 84/1/6
f 78/1/6 76/1/6 84/1/6
