# MagicaVoxel @ Ephtracy

# group
o 

# material
mtllib Progect_X-4.mtl
usemtl palette

# normals
vn -1 0 0
vn 1 0 0
vn 0 0 1
vn 0 0 -1
vn 0 -1 0
vn 0 1 0

# texcoords
vt 0.208984 0.5
vt 0.306641 0.5
vt 0.677734 0.5
vt 0.681641 0.5
vt 0.689453 0.5
vt 0.693359 0.5
vt 0.697266 0.5
vt 0.701172 0.5
vt 0.751953 0.5
vt 0.837891 0.5
vt 0.947266 0.5
vt 0.955078 0.5

# verts
v -0.55 -0.55 0.55
v -0.55 -0.55 -0.55
v -0.55 -0.45 0.55
v -0.55 -0.45 -0.55
v -0.55 -0.35 0.55
v -0.55 -0.35 -0.55
v -0.55 -0.25 0.55
v -0.55 -0.25 -0.55
v -0.55 -0.15 0.55
v -0.55 -0.15 -0.55
v -0.55 -0.05 0.55
v -0.55 -0.05 -0.55
v -0.55 0.05 0.55
v -0.55 0.05 -0.55
v -0.55 0.15 0.55
v -0.55 0.15 -0.55
v -0.55 0.25 0.55
v -0.55 0.25 -0.55
v -0.55 0.35 0.55
v -0.55 0.35 -0.55
v -0.55 0.45 0.55
v -0.55 0.45 -0.55
v -0.55 0.55 0.55
v -0.55 0.55 -0.55
v 0.55 -0.55 0.55
v 0.55 -0.55 -0.55
v 0.55 -0.45 0.55
v 0.55 -0.45 -0.55
v 0.55 -0.35 0.55
v 0.55 -0.35 -0.55
v 0.55 -0.25 0.55
v 0.55 -0.25 -0.55
v 0.55 -0.15 0.55
v 0.55 -0.15 -0.55
v 0.55 -0.05 0.55
v 0.55 -0.05 -0.55
v 0.55 0.05 0.55
v 0.55 0.05 -0.55
v 0.55 0.15 0.55
v 0.55 0.15 -0.55
v 0.55 0.25 0.55
v 0.55 0.25 -0.55
v 0.55 0.35 0.55
v 0.55 0.35 -0.55
v 0.55 0.45 0.55
v 0.55 0.45 -0.55
v 0.55 0.55 0.55
v 0.55 0.55 -0.55
v -0.55 -0.55 0.55
v -0.55 -0.45 0.55
v -0.55 -0.35 0.55
v -0.55 -0.25 0.55
v -0.55 -0.15 0.55
v -0.55 -0.05 0.55
v -0.55 0.05 0.55
v -0.55 0.15 0.55
v -0.55 0.25 0.55
v -0.55 0.35 0.55
v -0.55 0.45 0.55
v -0.55 0.55 0.55
v 0.55 -0.55 0.55
v 0.55 -0.45 0.55
v 0.55 -0.35 0.55
v 0.55 -0.25 0.55
v 0.55 -0.15 0.55
v 0.55 -0.05 0.55
v 0.55 0.05 0.55
v 0.55 0.15 0.55
v 0.55 0.25 0.55
v 0.55 0.35 0.55
v 0.55 0.45 0.55
v 0.55 0.55 0.55
v -0.55 -0.55 -0.55
v -0.55 -0.45 -0.55
v -0.55 -0.35 -0.55
v -0.55 -0.25 -0.55
v -0.55 -0.15 -0.55
v -0.55 -0.05 -0.55
v -0.55 0.05 -0.55
v -0.55 0.15 -0.55
v -0.55 0.25 -0.55
v -0.55 0.35 -0.55
v -0.55 0.45 -0.55
v -0.55 0.55 -0.55
v 0.55 -0.55 -0.55
v 0.55 -0.45 -0.55
v 0.55 -0.35 -0.55
v 0.55 -0.25 -0.55
v 0.55 -0.15 -0.55
v 0.55 -0.05 -0.55
v 0.55 0.05 -0.55
v 0.55 0.15 -0.55
v 0.55 0.25 -0.55
v 0.55 0.35 -0.55
v 0.55 0.45 -0.55
v 0.55 0.55 -0.55
v -0.55 -0.55 0.55
v 0.55 -0.55 0.55
v -0.55 -0.55 -0.55
v 0.55 -0.55 -0.55
v -0.55 0.55 0.55
v 0.55 0.55 0.55
v -0.55 0.55 -0.55
v 0.55 0.55 -0.55

# faces
f 3/10/1 2/10/1 1/10/1
f 4/10/1 2/10/1 3/10/1
f 5/1/1 4/1/1 3/1/1
f 6/1/1 4/1/1 5/1/1
f 7/4/1 6/4/1 5/4/1
f 8/4/1 6/4/1 7/4/1
f 9/3/1 8/3/1 7/3/1
f 10/3/1 8/3/1 9/3/1
f 11/9/1 10/9/1 9/9/1
f 12/9/1 10/9/1 11/9/1
f 13/11/1 12/11/1 11/11/1
f 14/11/1 12/11/1 13/11/1
f 15/12/1 14/12/1 13/12/1
f 16/12/1 14/12/1 15/12/1
f 17/8/1 16/8/1 15/8/1
f 18/8/1 16/8/1 17/8/1
f 19/7/1 18/7/1 17/7/1
f 20/7/1 18/7/1 19/7/1
f 21/6/1 20/6/1 19/6/1
f 22/6/1 20/6/1 21/6/1
f 23/5/1 22/5/1 21/5/1
f 24/5/1 22/5/1 23/5/1
f 25/10/2 26/10/2 27/10/2
f 27/10/2 26/10/2 28/10/2
f 27/1/2 28/1/2 29/1/2
f 29/1/2 28/1/2 30/1/2
f 29/4/2 30/4/2 31/4/2
f 31/4/2 30/4/2 32/4/2
f 31/3/2 32/3/2 33/3/2
f 33/3/2 32/3/2 34/3/2
f 33/9/2 34/9/2 35/9/2
f 35/9/2 34/9/2 36/9/2
f 35/11/2 36/11/2 37/11/2
f 37/11/2 36/11/2 38/11/2
f 37/12/2 38/12/2 39/12/2
f 39/12/2 38/12/2 40/12/2
f 39/8/2 40/8/2 41/8/2
f 41/8/2 40/8/2 42/8/2
f 41/7/2 42/7/2 43/7/2
f 43/7/2 42/7/2 44/7/2
f 43/6/2 44/6/2 45/6/2
f 45/6/2 44/6/2 46/6/2
f 45/5/2 46/5/2 47/5/2
f 47/5/2 46/5/2 48/5/2
f 61/10/3 50/10/3 49/10/3
f 62/1/3 51/1/3 50/1/3
f 62/10/3 50/10/3 61/10/3
f 63/4/3 52/4/3 51/4/3
f 63/1/3 51/1/3 62/1/3
f 64/3/3 53/3/3 52/3/3
f 64/4/3 52/4/3 63/4/3
f 65/9/3 54/9/3 53/9/3
f 65/3/3 53/3/3 64/3/3
f 66/11/3 55/11/3 54/11/3
f 66/9/3 54/9/3 65/9/3
f 67/12/3 56/12/3 55/12/3
f 67/11/3 55/11/3 66/11/3
f 68/8/3 57/8/3 56/8/3
f 68/12/3 56/12/3 67/12/3
f 69/7/3 58/7/3 57/7/3
f 69/8/3 57/8/3 68/8/3
f 70/6/3 59/6/3 58/6/3
f 70/7/3 58/7/3 69/7/3
f 71/5/3 60/5/3 59/5/3
f 71/6/3 59/6/3 70/6/3
f 72/5/3 60/5/3 71/5/3
f 73/10/4 74/10/4 85/10/4
f 74/1/4 75/1/4 86/1/4
f 85/10/4 74/10/4 86/10/4
f 75/4/4 76/4/4 87/4/4
f 86/1/4 75/1/4 87/1/4
f 76/3/4 77/3/4 88/3/4
f 87/4/4 76/4/4 88/4/4
f 77/9/4 78/9/4 89/9/4
f 88/3/4 77/3/4 89/3/4
f 78/11/4 79/11/4 90/11/4
f 89/9/4 78/9/4 90/9/4
f 79/12/4 80/12/4 91/12/4
f 90/11/4 79/11/4 91/11/4
f 80/8/4 81/8/4 92/8/4
f 91/12/4 80/12/4 92/12/4
f 81/7/4 82/7/4 93/7/4
f 92/8/4 81/8/4 93/8/4
f 82/6/4 83/6/4 94/6/4
f 93/7/4 82/7/4 94/7/4
f 83/5/4 84/5/4 95/5/4
f 94/6/4 83/6/4 95/6/4
f 95/5/4 84/5/4 96/5/4
f 99/10/5 98/10/5 97/10/5
f 100/10/5 98/10/5 99/10/5
f 101/5/6 102/5/6 103/5/6
f 103/5/6 102/5/6 104/5/6
